<?xml version="1.0"?>
<svg xmlns="http://www.w3.org/2000/svg" xmlns:xlink="http://www.w3.org/1999/xlink" version="1.1" id="Layer_1" x="0px" y="0px" viewBox="0 0 512 512" style="enable-background:new 0 0 512 512;" xml:space="preserve" width="512px" height="512px" class=""><g><g id="XMLID_932_">
	<g id="XMLID_878_">
		<circle id="XMLID_1802_" style="fill:#FFFFFF" cx="256" cy="34" r="24" data-original="#93E7F8" class="active-path" data-old_color="#93E7F8"/>
		<circle id="XMLID_1801_" style="fill:#FFFFFF" cx="256" cy="478" r="24" data-original="#93E7F8" class="active-path" data-old_color="#93E7F8"/>
		<circle id="XMLID_1800_" style="fill:#FFFFFF" cx="34" cy="256" r="24" data-original="#93E7F8" class="active-path" data-old_color="#93E7F8"/>
		<circle id="XMLID_1799_" style="fill:#FFFFFF" cx="478" cy="256" r="24" data-original="#93E7F8" class="active-path" data-old_color="#93E7F8"/>
		<circle id="XMLID_2130_" style="fill:#FFFFFF" cx="256" cy="256" r="25.29" data-original="#FF7480" class="" data-old_color="#FF7480"/>
	</g>
	<g id="XMLID_276_">
		<g id="XMLID_314_">
			<path id="XMLID_931_" d="M114,246c-2.63,0-5.21,1.07-7.07,2.93c-1.86,1.86-2.93,4.44-2.93,7.07c0,2.63,1.069,5.21,2.93,7.07     S111.37,266,114,266s5.21-1.07,7.069-2.93c1.86-1.86,2.931-4.44,2.931-7.07c0-2.63-1.07-5.21-2.931-7.07     C119.21,247.07,116.63,246,114,246z" data-original="#000000" class="" style="fill:#FFFFFF" data-old_color="#000000"/>
			<path id="XMLID_926_" d="M67.604,352.918l-17.386,10.038c-4.783,2.762-6.422,8.877-3.66,13.66     c1.853,3.208,5.213,5.001,8.67,5.001c1.696,0,3.416-0.432,4.99-1.341l17.386-10.038c4.783-2.762,6.422-8.877,3.66-13.66     C78.503,351.795,72.387,350.157,67.604,352.918z" data-original="#000000" class="" style="fill:#FFFFFF" data-old_color="#000000"/>
			<path id="XMLID_925_" d="M439.407,160.423c1.696,0,3.416-0.432,4.99-1.341l17.386-10.038c4.783-2.762,6.422-8.877,3.66-13.66     s-8.876-6.421-13.66-3.66l-17.386,10.038c-4.783,2.762-6.422,8.877-3.66,13.66C432.59,158.63,435.95,160.423,439.407,160.423z" data-original="#000000" class="" style="fill:#FFFFFF" data-old_color="#000000"/>
			<path id="XMLID_923_" d="M370.239,434.396c-2.76-4.782-8.873-6.422-13.66-3.66c-4.783,2.761-6.422,8.877-3.66,13.66     l10.037,17.386c1.852,3.208,5.213,5.001,8.67,5.001c1.696,0,3.415-0.432,4.99-1.341c4.783-2.761,6.422-8.877,3.66-13.66     L370.239,434.396z" data-original="#000000" class="" style="fill:#FFFFFF" data-old_color="#000000"/>
			<path id="XMLID_922_" d="M141.762,77.603c1.853,3.208,5.213,5.001,8.67,5.001c1.696,0,3.416-0.432,4.99-1.341     c4.783-2.762,6.422-8.877,3.66-13.66l-10.038-17.386c-2.761-4.783-8.876-6.422-13.66-3.66c-4.783,2.762-6.422,8.877-3.66,13.66     L141.762,77.603z" data-original="#000000" class="" style="fill:#FFFFFF" data-old_color="#000000"/>
			<path id="XMLID_921_" d="M461.519,363.414l-17.386-10.038c-4.784-2.762-10.9-1.123-13.66,3.66     c-2.762,4.783-1.123,10.899,3.66,13.66l17.386,10.038c1.575,0.909,3.294,1.341,4.99,1.341c3.456,0,6.818-1.793,8.67-5.001     C467.94,372.292,466.302,366.175,461.519,363.414z" data-original="#000000" class="" style="fill:#FFFFFF" data-old_color="#000000"/>
			<path id="XMLID_325_" d="M77.868,141.303l-17.386-10.038c-4.785-2.762-10.9-1.123-13.66,3.66     c-2.762,4.783-1.123,10.899,3.66,13.66l17.386,10.038c1.575,0.909,3.294,1.341,4.99,1.341c3.456,0,6.818-1.793,8.67-5.001     C84.29,150.18,82.651,144.064,77.868,141.303z" data-original="#000000" class="" style="fill:#FFFFFF" data-old_color="#000000"/>
			<path id="XMLID_324_" d="M357.037,81.528c1.575,0.909,3.294,1.341,4.99,1.341c3.456,0,6.817-1.793,8.67-5.001l10.038-17.386     c2.762-4.783,1.123-10.898-3.66-13.66c-4.784-2.761-10.898-1.123-13.66,3.66l-10.038,17.386     C350.615,72.65,352.254,78.766,357.037,81.528z" data-original="#000000" class="" style="fill:#FFFFFF" data-old_color="#000000"/>
			<path id="XMLID_323_" d="M154.964,430.472c-4.784-2.762-10.898-1.123-13.66,3.66l-10.038,17.386     c-2.762,4.783-1.123,10.898,3.66,13.66c1.575,0.909,3.294,1.341,4.99,1.341c3.456,0,6.817-1.793,8.67-5.001l10.038-17.386     C161.386,439.349,159.747,433.233,154.964,430.472z" data-original="#000000" class="" style="fill:#FFFFFF" data-old_color="#000000"/>
			<path id="XMLID_320_" d="M388.998,108.86L272.867,224.991c-5.116-2.792-10.877-4.28-16.868-4.28     c-9.426,0-18.288,3.671-24.953,10.336c-4.313,4.314-7.273,9.476-8.882,14.954H154c-5.522,0-10,4.477-10,10s4.478,10,10,10h68.164     c1.609,5.478,4.569,10.64,8.882,14.953c4.236,4.237,9.362,7.258,14.954,8.901v39.79c0,5.523,4.478,10,10,10s10-4.477,10-10     v-39.791c5.592-1.643,10.717-4.664,14.952-8.9c6.666-6.665,10.338-15.527,10.338-24.954c0-5.991-1.488-11.751-4.28-16.867     l116.131-116.132c3.905-3.905,3.905-10.237,0-14.142C399.234,104.954,392.904,104.955,388.998,108.86z M266.812,266.811     C266.812,266.811,266.811,266.811,266.812,266.811c-2.889,2.888-6.729,4.479-10.813,4.479c-4.083,0-7.923-1.59-10.811-4.479     c-5.962-5.961-5.962-15.661,0-21.623c2.888-2.888,6.728-4.478,10.811-4.478c4.084,0,7.924,1.59,10.813,4.479     c2.888,2.888,4.479,6.727,4.479,10.811S269.699,263.923,266.812,266.811z" data-original="#000000" class="" style="fill:#FFFFFF" data-old_color="#000000"/>
			<path id="XMLID_317_" d="M256,68c18.748,0,34-15.252,34-34S274.748,0,256,0s-34,15.252-34,34S237.252,68,256,68z M256,20     c7.72,0,14,6.28,14,14s-6.28,14-14,14s-14-6.28-14-14S248.28,20,256,20z" data-original="#000000" class="" style="fill:#FFFFFF" data-old_color="#000000"/>
			<path id="XMLID_948_" d="M256,444c-18.748,0-34,15.252-34,34s15.252,34,34,34s34-15.252,34-34S274.748,444,256,444z M256,492     c-7.72,0-14-6.28-14-14s6.28-14,14-14s14,6.28,14,14S263.72,492,256,492z" data-original="#000000" class="" style="fill:#FFFFFF" data-old_color="#000000"/>
			<path id="XMLID_959_" d="M68,256c0-18.748-15.252-34-34-34S0,237.252,0,256s15.252,34,34,34S68,274.748,68,256z M34,270     c-7.72,0-14-6.28-14-14s6.28-14,14-14s14,6.28,14,14S41.72,270,34,270z" data-original="#000000" class="" style="fill:#FFFFFF" data-old_color="#000000"/>
			<path id="XMLID_967_" d="M478,222c-18.748,0-34,15.252-34,34s15.252,34,34,34s34-15.252,34-34S496.748,222,478,222z M478,270     c-7.72,0-14-6.28-14-14s6.28-14,14-14s14,6.28,14,14S485.72,270,478,270z" data-original="#000000" class="" style="fill:#FFFFFF" data-old_color="#000000"/>
		</g>
	</g>
</g></g> </svg>
