<?xml version="1.0"?>
<svg xmlns="http://www.w3.org/2000/svg" xmlns:xlink="http://www.w3.org/1999/xlink" version="1.1" id="Capa_1" x="0px" y="0px" viewBox="0 0 448 448" style="enable-background:new 0 0 448 448;" xml:space="preserve" width="512px" height="512px"><g><g>
	<g>
		<path d="M308.338,151.325c-11.217,0-20.338,9.121-20.338,20.338S297.121,192,308.338,192s20.338-9.121,20.338-20.338    S319.555,151.325,308.338,151.325z M308.338,176c-2.392,0-4.338-1.946-4.338-4.338c0-2.392,1.946-4.338,4.338-4.338    c2.392,0,4.338,1.946,4.338,4.338C312.675,174.054,310.73,176,308.338,176z" data-original="#000000" class="active-path" data-old_color="#000000" fill="#C14000"/>
	</g>
</g><g>
	<g>
		<path d="M415.256,263.912C435.254,246.332,448,220.718,448,192c0-0.482-0.066-0.95-0.072-1.43    c-5.192,0.871-10.49,1.43-15.928,1.43c-52.537,0-95.156-42.218-95.928-94.57c-41.637,6.969-73.641,40.82-78.756,83.043    C246.687,177.606,235.539,176,224,176c-47.977,0-89.726,26.434-111.645,65.494C107.031,240.578,101.588,240,96,240    c-53.019,0-96,42.981-96,96c0,53.019,42.981,96,96,96h256c53.019,0,96-42.981,96-96C448,307.242,435.289,281.506,415.256,263.912z     M322.213,117.805c10.142,50.746,54.938,89.422,108.182,90.183c-3.795,18.633-14.43,34.5-28.766,45.95    c-5.854-3.547-12.094-6.498-18.68-8.742c0.574-1.648,1.051-3.351,1.051-5.195c0-8.836-7.164-16-16-16s-16,7.164-16,16    c-5.588,0-11.031,0.578-16.355,1.494c-14.066-25.066-36.359-44.814-63.164-55.832    C274.894,155.043,294.254,128.914,322.213,117.805z M352,416H96c-44.111,0-80-35.886-80-80s35.889-80,80-80    c4.242,0,8.705,0.414,13.642,1.262l11.137,1.916l5.53-9.854C146.15,213.965,183.584,192,224,192s77.85,21.965,97.691,57.324    l5.53,9.854l11.137-1.916c4.938-0.847,9.4-1.262,13.642-1.262c44.111,0,80,35.886,80,80S396.111,416,352,416z" data-original="#000000" class="active-path" data-old_color="#000000" fill="#C14000"/>
	</g>
</g><g>
	<g>
		<path d="M144,16c0,36.77-27.229,64-64,64c36.771,0,64,27.226,64,64c0-36.774,27.229-64,64-64C171.229,80,144,52.77,144,16z     M144,94.82c-4.236-5.606-9.215-10.582-14.818-14.82c5.603-4.238,10.582-9.215,14.818-14.82    c4.236,5.606,9.215,10.582,14.818,14.82C153.215,84.238,148.236,89.215,144,94.82z" data-original="#000000" class="active-path" data-old_color="#000000" fill="#C14000"/>
	</g>
</g><g>
	<g>
		<path d="M51.242,166.336C39.656,161.645,32,150.539,32,136.752c0,6.894-1.914,13.119-5.278,18.205    c-2.242,3.39-5.125,6.275-8.518,8.518c-1.695,1.119-3.518,2.08-5.447,2.862C8.894,167.9,4.598,168.752,0,168.752    c4.598,0,8.894,0.85,12.758,2.414c1.93,0.781,3.752,1.742,5.447,2.863c3.393,2.242,6.275,5.127,8.518,8.518    C30.086,187.633,32,193.855,32,200.752c0-13.791,7.656-24.897,19.242-29.586c3.863-1.565,8.16-2.414,12.758-2.414    C59.402,168.752,55.106,167.901,51.242,166.336z" data-original="#000000" class="active-path" data-old_color="#000000" fill="#C14000"/>
	</g>
</g></g> </svg>
