<?xml version="1.0"?>
<svg xmlns="http://www.w3.org/2000/svg" xmlns:xlink="http://www.w3.org/1999/xlink" version="1.1" id="Capa_1" x="0px" y="0px" viewBox="0 0 512 512" style="enable-background:new 0 0 512 512;" xml:space="preserve" width="512px" height="512px" class=""><g><g>
	<g>
		<path d="M497.231,12.308H14.769C6.613,12.308,0,18.92,0,27.077V224c0,8.157,6.613,14.769,14.769,14.769H64v44.308    c0,57.433,42.977,105.014,98.462,112.272v89.574c0,8.157,6.613,14.769,14.769,14.769h157.538c8.157,0,14.769-6.613,14.769-14.769    v-89.574C405.023,388.091,448,340.51,448,283.077v-44.308h49.231c8.157,0,14.769-6.613,14.769-14.769V27.077    C512,18.92,505.387,12.308,497.231,12.308z M418.462,283.077c0,46.148-37.544,83.692-83.692,83.692    c-8.157,0-14.769,6.613-14.769,14.769v88.615H192v-88.615c0-8.157-6.613-14.769-14.769-14.769    c-46.148,0-83.692-37.544-83.692-83.692v-44.308h29.538v34.462c0,35.29,28.71,64,64,64h59.077h19.692h59.077    c35.29,0,64-28.71,64-64v-34.462h29.538V283.077z M192.267,307.692h-5.19c-19.002,0-34.462-15.459-34.462-34.462v-34.462h29.539    v34.462C182.154,285.914,185.878,297.736,192.267,307.692z M211.692,273.231v-34.462h88.615v34.462    c0,19.002-15.459,34.462-34.462,34.462h-19.692C227.152,307.692,211.692,292.233,211.692,273.231z M319.733,307.692    c6.389-9.956,10.113-21.779,10.113-34.462v-34.462h29.539v34.462c0,19.002-15.459,34.462-34.462,34.462H319.733z M482.462,209.231    H29.538V41.846h452.923V209.231z" data-original="#000000" class="active-path" data-old_color="#000000" fill="#FFA500"/>
	</g>
</g><g>
	<g>
		<path d="M308.216,77.647c-14.112-14.112-35.457-16.696-52.216-7.75c-16.76-8.945-38.104-6.362-52.217,7.751    c-17.276,17.275-17.276,45.385,0,62.661l41.774,41.772c2.884,2.884,6.664,4.326,10.443,4.326s7.56-1.441,10.443-4.326    l41.773-41.773C325.492,123.033,325.492,94.923,308.216,77.647z M287.329,119.422L256,150.751l-31.33-31.33    c-5.758-5.759-5.758-15.129,0-20.887c2.879-2.879,6.662-4.319,10.444-4.319s7.564,1.44,10.443,4.319    c5.768,5.767,15.118,5.767,20.887,0c5.758-5.759,15.128-5.759,20.887,0C293.089,104.293,293.089,113.663,287.329,119.422z" data-original="#000000" class="active-path" data-old_color="#000000" fill="#FFA500"/>
	</g>
</g></g> </svg>
