<?xml version="1.0"?>
<svg xmlns="http://www.w3.org/2000/svg" id="bat_x5F_moon" enable-background="new 0 0 300 300" height="512px" viewBox="0 0 300 300" width="512px" class=""><g><g><path d="m167.006 57.748c-51.832 0-94 42.168-94 94 0 11.694 2.141 23.067 6.314 33.859-16.495 8.25-33.69 23.824-40.231 53.261-.398 1.792.474 3.625 2.116 4.445.57.285 1.182.422 1.788.422 1.14 0 2.259-.487 3.039-1.397.708-.826 17.624-20.053 40.757-2.703 1.585 1.189 3.812 1.03 5.221-.364.09-.089 9.152-8.917 19.791-8.14 6.203.458 11.951 4.16 17.084 11.003.812 1.082 2.115 1.675 3.465 1.587 1.349-.089 2.564-.857 3.227-2.036.065-.115.291-.509.674-1.1 9.871 3.417 20.213 5.161 30.756 5.161 51.832 0 94-42.168 94-94s-42.169-93.998-94.001-93.998zm-35.233 175.398c-5.779-6.132-12.304-9.489-19.454-9.997-.631-.045-1.256-.066-1.875-.066-9.61 0-17.595 5.185-21.507 8.282-16.028-10.618-29.806-7.133-38.63-2.244 14.334-37.779 50.798-43.714 62.453-44.629 1.556-.122 2.899-1.139 3.439-2.603.541-1.464.18-3.109-.924-4.213l-.369-.369c-.098-.124-.186-.253-.3-.367l-3.425-3.425c-3.25-3.924-3.04-9.767.633-13.44 3.899-3.899 10.243-3.899 14.141 0l3.461 3.461c1.104 1.104 2.75 1.464 4.213.924 1.464-.54 2.481-1.883 2.603-3.439.915-11.655 6.849-48.118 44.628-62.453-4.889 8.823-8.374 22.603 2.244 38.63-3.296 4.163-8.958 12.94-8.215 23.381.508 7.15 3.865 13.675 9.997 19.454-2.822 2.213-6.453 5.564-9.498 10.013-4.462 6.522-8.315 16.399-4.633 28.971-12.574-3.684-22.448.17-28.971 4.633-4.447 3.043-7.798 6.673-10.011 9.496zm35.233 4.602c-8.638 0-17.127-1.269-25.287-3.777 6.586-6.366 18.327-12.988 34.617-3.937 1.563.868 3.509.594 4.771-.668 1.263-1.263 1.535-3.21.668-4.771-14.316-25.77 10.586-40.161 11.645-40.756 1.185-.658 1.956-1.872 2.048-3.224s-.506-2.659-1.591-3.473c-6.844-5.133-10.546-10.881-11.003-17.083-.785-10.638 8.05-19.7 8.132-19.783 1.407-1.408 1.566-3.636.372-5.229-17.243-22.991 1.89-40.052 2.703-40.758 1.394-1.195 1.795-3.184.975-4.826s-2.651-2.514-4.445-2.116c-45.475 10.106-57.893 45.633-61.273 64.724l-10.888-10.888c-1.562-1.562-4.095-1.562-5.657 0s-1.562 4.095 0 5.657l2.655 2.655c-3.404.658-6.657 2.289-9.288 4.921-2.602 2.602-4.224 5.812-4.896 9.176l-2.611-2.611c-1.562-1.561-4.094-1.562-5.657 0-1.562 1.562-1.562 4.095 0 5.657l10.934 10.935c-4.903.862-10.902 2.328-17.284 4.796-3.726-9.764-5.637-20.048-5.637-30.622 0-47.42 38.58-86 86-86s86 38.58 86 86-38.583 86.001-86.003 86.001z" data-original="#000000" class="active-path" data-old_color="#000000" fill="#C14000"/><path d="m240.359 58.396c.781.781 1.804 1.171 2.828 1.171s2.047-.391 2.829-1.172l2.991-2.991 2.991 2.991c.781.781 1.805 1.172 2.829 1.172 1.023 0 2.047-.391 2.828-1.171 1.562-1.562 1.562-4.095 0-5.657l-2.992-2.992 2.992-2.992c1.562-1.562 1.562-4.095 0-5.657s-4.094-1.562-5.657 0l-2.991 2.991-2.991-2.991c-1.562-1.562-4.094-1.562-5.657 0-1.562 1.562-1.562 4.095 0 5.657l2.992 2.992-2.992 2.992c-1.563 1.562-1.563 4.095 0 5.657z" data-original="#000000" class="active-path" data-old_color="#000000" fill="#C14000"/><path d="m50.015 105.1c-1.562-1.562-4.094-1.562-5.657 0-1.562 1.562-1.562 4.095 0 5.657l2.992 2.992-2.992 2.992c-1.562 1.562-1.562 4.095 0 5.657.781.781 1.804 1.171 2.828 1.171s2.047-.391 2.829-1.172l2.991-2.991 2.991 2.991c.781.781 1.805 1.172 2.829 1.172 1.023 0 2.047-.391 2.828-1.171 1.562-1.562 1.562-4.095 0-5.657l-2.992-2.992 2.992-2.992c1.562-1.562 1.562-4.095 0-5.657s-4.094-1.562-5.657 0l-2.991 2.991z" data-original="#000000" class="active-path" data-old_color="#000000" fill="#C14000"/><path d="m47.006 52.072c2.388 0 4.324-1.936 4.324-4.324s-1.936-4.324-4.324-4.324-4.324 1.936-4.324 4.324 1.936 4.324 4.324 4.324z" data-original="#000000" class="active-path" data-old_color="#000000" fill="#C14000"/><path d="m247.006 251.423c-2.388 0-4.324 1.936-4.324 4.324s1.936 4.324 4.324 4.324 4.324-1.936 4.324-4.324c.001-2.388-1.935-4.324-4.324-4.324z" data-original="#000000" class="active-path" data-old_color="#000000" fill="#C14000"/><path d="m217.006 109.748c-8.822 0-16 7.178-16 16 0 2.209 1.791 4 4 4s4-1.791 4-4c0-4.411 3.589-8 8-8s8 3.589 8 8-3.589 8-8 8c-2.209 0-4 1.791-4 4s1.791 4 4 4c8.822 0 16-7.178 16-16s-7.178-16-16-16z" data-original="#000000" class="active-path" data-old_color="#000000" fill="#C14000"/><path d="m209.006 197.748c-2.209 0-4 1.791-4 4 0 2.206-1.794 4-4 4-2.209 0-4 1.791-4 4s1.791 4 4 4c6.617 0 12-5.383 12-12 0-2.209-1.791-4-4-4z" data-original="#000000" class="active-path" data-old_color="#000000" fill="#C14000"/><path d="m123.006 93.748c-7.72 0-14 6.28-14 14 0 5.639 3.356 10.702 8.55 12.898.509.215 1.037.317 1.556.317 1.559 0 3.041-.917 3.686-2.443.86-2.035-.091-4.382-2.126-5.242-2.227-.942-3.666-3.113-3.666-5.53 0-3.309 2.691-6 6-6s6 2.691 6 6c0 .812-.158 1.598-.47 2.334-.86 2.035.091 4.382 2.126 5.242 2.037.861 4.382-.091 5.242-2.126.731-1.729 1.102-3.562 1.102-5.451 0-7.719-6.28-13.999-14-13.999z" data-original="#000000" class="active-path" data-old_color="#000000" fill="#C14000"/><circle cx="123.006" cy="163.748" r="2" data-original="#000000" class="active-path" data-old_color="#000000" fill="#C14000"/><circle cx="115.006" cy="171.748" r="2" data-original="#000000" class="active-path" data-old_color="#000000" fill="#C14000"/></g></g> </svg>
