<?xml version="1.0"?>
<svg xmlns="http://www.w3.org/2000/svg" height="512px" viewBox="0 -62 512 512" width="512px" class=""><g><path d="m447 0h-382c-35.839844 0-65 29.160156-65 65v209.332031c0 18.148438 7.433594 34.699219 20.929688 46.605469 13.644531 12.035156 32.226562 18.394531 53.738281 18.394531h131.554687l49.898438 48.757813 48.757812-48.757813h142.121094c35.839844 0 65-29.15625 65-65v-209.332031c0-35.839844-29.160156-65-65-65zm35 274.335938c0 19.296874-15.699219 35-35 35h-154.546875l-36.574219 36.574218-37.433594-36.574218h-143.777343c-26.71875 0-44.667969-14.066407-44.667969-35v-209.335938c0-19.300781 15.699219-35 35-35h382c19.300781 0 35 15.699219 35 35zm0 0" data-original="#000000" class="active-path" data-old_color="#000000" fill="#FFFFFF"/><path d="m197.320312 93.851562c-12.953124 0-25.132812 5.042969-34.292968 14.207032l-6.460938 6.457031-6.460937-6.457031c-9.160157-9.164063-21.339844-14.207032-34.292969-14.207032-12.957031 0-25.136719 5.042969-34.296875 14.207032-18.910156 18.910156-18.910156 49.679687 0 68.589844l75.050781 75.046874 75.050782-75.046874c18.910156-18.910157 18.910156-49.679688 0-68.589844-9.160157-9.164063-21.339844-14.207032-34.296876-14.207032zm13.082032 61.582032-53.835938 53.835937-53.835937-53.835937c-7.214844-7.210938-7.214844-18.949219 0-26.164063 3.605469-3.605469 8.34375-5.410156 13.082031-5.410156s9.476562 1.804687 13.082031 5.410156l27.671875 27.671875 27.671875-27.671875c3.496094-3.496093 8.140625-5.417969 13.082031-5.417969 4.941407 0 9.589844 1.921876 13.082032 5.417969 7.214844 7.214844 7.214844 18.953125 0 26.164063zm0 0" data-original="#000000" class="active-path" data-old_color="#000000" fill="#FFFFFF"/><path d="m274.179688 147.480469h15.476562v67.335937h30.445312v-90.296875h-45.921874zm0 0" data-original="#000000" class="active-path" data-old_color="#000000" fill="#FFFFFF"/><path d="m443.039062 124.519531h-33.152343l-29.671875 32.765625v-32.765625h-29.925782v90.296875h29.925782v-22.316406l6.839844-7.609375 22.574218 29.925781h35.214844l-37.925781-50.566406zm0 0" data-original="#000000" class="active-path" data-old_color="#000000" fill="#FFFFFF"/></g> </svg>
