<?xml version="1.0"?>
<svg xmlns="http://www.w3.org/2000/svg" height="512px" viewBox="-20 -35 661.33331 661" width="512px"><g><path d="m610 189.167969h-90v-20c0-5.523438-4.476562-10-10-10h-500c-5.523438 0-10 4.476562-10 10v150c.101562 90.753906 53.5 172.992187 136.371094 210h-126.371094c-5.523438 0-10 4.476562-10 10 .0351562 27.601562 22.398438 49.964843 50 50h470c27.601562-.035157 49.964844-22.398438 50-50 0-5.523438-4.476562-10-10-10h-176.371094c63.082032-28.277344 110.179688-83.3125 128.371094-150h98c5.523438 0 10-4.480469 10-10v-170c0-5.523438-4.476562-10-10-10zm-90 60h40v70h-40zm28.289062 300c-4.25 11.976562-15.578124 19.984375-28.289062 20h-470c-12.710938-.015625-24.039062-8.023438-28.289062-20zm-258.289062-20h-60c-115.929688-.128907-209.875-94.074219-210-210v-140h480v140c-.125 115.925781-94.070312 209.871093-210 210zm310-170h-80v-20h50c5.523438 0 10-4.480469 10-10v-90c0-5.523438-4.476562-10-10-10h-50v-20h80zm0 0" data-original="#000000" class="active-path" data-old_color="#000000" fill="#C14000"/><path d="m142.203125 139.167969c0 5.519531 4.472656 10 10 10 5.523437 0 10-4.480469 10-10-.101563-5.832031 2.011719-11.480469 5.917969-15.8125 12.894531-16.0625 12.894531-38.933594 0-55-3.910156-4.335938-6.027344-9.996094-5.917969-15.828125-.101563-5.835938 2.011719-11.496094 5.917969-15.832032 6.390625-7.738281 9.816406-17.496093 9.675781-27.527343 0-5.523438-4.472656-10-10-10-5.523437 0-10 4.476562-10 10 .101563 5.832031-2.011719 11.492187-5.917969 15.828125-6.386718 7.734375-9.8125 17.480468-9.675781 27.511718-.136719 10.027344 3.289063 19.773438 9.675781 27.507813 7.894532 9.074219 7.894532 22.578125 0 31.652344-6.378906 7.726562-9.8125 17.472656-9.675781 27.5zm0 0" data-original="#000000" class="active-path" data-old_color="#000000" fill="#C14000"/><path d="m262.203125 139.167969c0 5.519531 4.472656 10 10 10 5.523437 0 10-4.480469 10-10-.101563-5.832031 2.011719-11.480469 5.917969-15.8125 12.894531-16.0625 12.894531-38.933594 0-55-3.910156-4.335938-6.027344-9.996094-5.917969-15.828125-.101563-5.835938 2.011719-11.496094 5.917969-15.832032 6.390625-7.738281 9.816406-17.496093 9.675781-27.527343 0-5.523438-4.472656-10-10-10-5.523437 0-10 4.476562-10 10 .101563 5.832031-2.011719 11.492187-5.917969 15.828125-6.386718 7.734375-9.8125 17.480468-9.675781 27.511718-.136719 10.027344 3.289063 19.773438 9.675781 27.507813 7.894532 9.074219 7.894532 22.578125 0 31.652344-6.378906 7.726562-9.8125 17.472656-9.675781 27.5zm0 0" data-original="#000000" class="active-path" data-old_color="#000000" fill="#C14000"/><path d="m382.203125 139.167969c0 5.519531 4.472656 10 10 10 5.523437 0 10-4.480469 10-10-.101563-5.832031 2.011719-11.480469 5.917969-15.8125 12.894531-16.0625 12.894531-38.933594 0-55-3.910156-4.335938-6.027344-9.996094-5.917969-15.828125-.101563-5.835938 2.011719-11.496094 5.917969-15.832032 6.390625-7.738281 9.816406-17.496093 9.675781-27.527343 0-5.523438-4.472656-10-10-10-5.523437 0-10 4.476562-10 10 .101563 5.832031-2.011719 11.492187-5.917969 15.828125-6.386718 7.734375-9.8125 17.480468-9.675781 27.511718-.136719 10.027344 3.289063 19.773438 9.675781 27.507813 7.894532 9.074219 7.894532 22.578125 0 31.652344-6.378906 7.726562-9.8125 17.472656-9.675781 27.5zm0 0" data-original="#000000" class="active-path" data-old_color="#000000" fill="#C14000"/><path d="m430 209.167969h-120c-5.523438 0-10 4.476562-10 10 0 5.519531 4.476562 10 10 10h120c5.523438 0 10-4.480469 10-10 0-5.523438-4.476562-10-10-10zm0 0" data-original="#000000" class="active-path" data-old_color="#000000" fill="#C14000"/><path d="m470 209.167969h-10c-5.523438 0-10 4.476562-10 10 0 5.519531 4.476562 10 10 10h10c5.523438 0 10-4.480469 10-10 0-5.523438-4.476562-10-10-10zm0 0" data-original="#000000" class="active-path" data-old_color="#000000" fill="#C14000"/><path d="m252.117188 253.003906c-2.539063 3.242188-62.117188 79.921875-62.117188 124.835938 0 40.246094 23.730469 68.320312 60 72.664062v28.664063c0 5.519531 4.476562 10 10 10s10-4.480469 10-10v-28.664063c36.269531-4.34375 60-32.417968 60-72.664062 0-44.914063-59.578125-121.59375-62.117188-124.835938-1.96875-2.308594-4.851562-3.636718-7.882812-3.636718s-5.914062 1.328124-7.882812 3.636718zm17.882812 177.316406v-25.800781l25.550781-17.003906c4.597657-3.066406 5.835938-9.273437 2.769531-13.867187-3.066406-4.597657-9.277343-5.839844-13.871093-2.773438l-14.449219 9.609375v-30c0-5.523437-4.476562-10-10-10s-10 4.476563-10 10v30l-14.449219-9.636719c-4.59375-3.066406-10.804687-1.828125-13.871093 2.765625-3.066407 4.597657-1.828126 10.808594 2.769531 13.875l25.550781 17.03125v25.800781c-20.789062-3.523437-40-18.574218-40-52.480468 0-27.253906 31.128906-75.953125 50-102.003906 18.871094 26 50 74.722656 50 102.003906 0 33.90625-19.210938 48.957031-40 52.480468zm0 0" data-original="#000000" class="active-path" data-old_color="#000000" fill="#C14000"/></g> </svg>
