<?xml version="1.0"?>
<svg xmlns="http://www.w3.org/2000/svg" height="512px" viewBox="0 0 512.00003 512.00003" width="512px" class=""><g><path d="m443.734375 0h-375.46875c-37.683594.0429688-68.2226562 30.582031-68.265625 68.265625v375.46875c.0429688 37.683594 30.582031 68.222656 68.265625 68.265625h375.46875c37.683594-.042969 68.222656-30.582031 68.265625-68.265625v-375.46875c-.042969-37.683594-30.582031-68.2226562-68.265625-68.265625zm-375.46875 17.066406h375.46875c28.265625.027344 51.171875 22.933594 51.199219 51.199219v290.132813h-477.867188v-290.132813c.027344-28.265625 22.933594-51.171875 51.199219-51.199219zm375.46875 477.867188h-375.46875c-28.265625-.027344-51.171875-22.933594-51.199219-51.199219v-68.269531h477.867188v68.269531c-.027344 28.265625-22.933594 51.171875-51.199219 51.199219zm0 0" data-original="#000000" class="active-path" data-old_color="#000000" fill="#FFFFFF"/><path d="m111.617188 419.269531-31.496094-23.21875c-5.332032-4.046875-12.511719-4.671875-18.460938-1.605469-6.527344 3.386719-10.582031 10.179688-10.460937 17.535157v46.4375c-.121094 7.359375 3.933593 14.148437 10.460937 17.539062 5.949219 3.0625 13.128906 2.4375 18.460938-1.605469l31.496094-23.21875c4.949218-3.804687 7.851562-9.691406 7.851562-15.933593 0-6.242188-2.902344-12.128907-7.851562-15.929688zm-10.128907 18.125-32.136719 23.328125c-.761718-.507812-1.175781-1.394531-1.085937-2.304687v-46.4375c0-1.296875.582031-2.046875 1.707031-2.191407l31.503906 23.21875c.585938.578126.914063 1.367188.914063 2.191407s-.328125 1.613281-.914063 2.195312zm0 0" data-original="#000000" class="active-path" data-old_color="#000000" fill="#FFFFFF"/><path d="m443.734375 392.535156h-34.132813c-4.714843 0-8.535156 3.820313-8.535156 8.53125 0 4.714844 3.820313 8.535156 8.535156 8.535156h34.132813c4.710937 0 8.53125-3.820312 8.53125-8.535156 0-4.710937-3.820313-8.53125-8.53125-8.53125zm0 0" data-original="#000000" class="active-path" data-old_color="#000000" fill="#FFFFFF"/><path d="m443.734375 426.667969h-34.132813c-4.714843 0-8.535156 3.820312-8.535156 8.53125 0 4.714843 3.820313 8.535156 8.535156 8.535156h34.132813c4.710937 0 8.53125-3.820313 8.53125-8.535156 0-4.710938-3.820313-8.53125-8.53125-8.53125zm0 0" data-original="#000000" class="active-path" data-old_color="#000000" fill="#FFFFFF"/><path d="m443.734375 460.800781h-34.132813c-4.714843 0-8.535156 3.820313-8.535156 8.53125 0 4.714844 3.820313 8.535157 8.535156 8.535157h34.132813c4.710937 0 8.53125-3.820313 8.53125-8.535157 0-4.710937-3.820313-8.53125-8.53125-8.53125zm0 0" data-original="#000000" class="active-path" data-old_color="#000000" fill="#FFFFFF"/><path d="m366.933594 426.667969h-145.066406v-8.535157c0-4.710937-3.820313-8.53125-8.535157-8.53125-4.710937 0-8.53125 3.820313-8.53125 8.53125v8.535157h-51.199219c-4.714843 0-8.535156 3.820312-8.535156 8.53125 0 4.714843 3.820313 8.535156 8.535156 8.535156h51.199219v8.53125c0 4.714844 3.820313 8.535156 8.53125 8.535156 4.714844 0 8.535157-3.820312 8.535157-8.535156v-8.53125h145.066406c4.710937 0 8.53125-3.820313 8.53125-8.535156 0-4.710938-3.820313-8.53125-8.53125-8.53125zm0 0" data-original="#000000" class="active-path" data-old_color="#000000" fill="#FFFFFF"/><path d="m136.535156 332.800781h264.53125c4.714844 0 8.535156-3.820312 8.535156-8.535156 0-4.710937-3.820312-8.53125-8.535156-8.53125h-51.199218v-93.867187c0-4.714844-3.820313-8.535157-8.535157-8.535157-4.710937 0-8.53125 3.820313-8.53125 8.535157v93.867187h-25.601562v-59.734375c0-4.710938-3.820313-8.535156-8.53125-8.535156-4.714844 0-8.535157 3.824218-8.535157 8.535156v59.734375h-25.597656v-25.601563c0-4.710937-3.824218-8.53125-8.535156-8.53125s-8.535156 3.820313-8.535156 8.53125v25.601563h-25.597656v-51.199219c0-4.714844-3.820313-8.535156-8.535157-8.535156-4.710937 0-8.53125 3.820312-8.53125 8.535156v51.199219h-25.601562v-34.132813c0-4.714843-3.820313-8.535156-8.53125-8.535156-4.714844 0-8.535157 3.820313-8.535157 8.535156v34.132813h-25.597656v-38.972656l68.007813-63.660157 39.160156 37.777344c3.292969 3.261719 7.75 5.066406 12.382813 5.011719 4.578124-.054687 8.933593-1.976563 12.066406-5.316406l90.246094-92.996094v21.621094c0 4.714843 3.820312 8.535156 8.535156 8.535156 4.710937 0 8.53125-3.820313 8.53125-8.535156v-42.664063c0-.121094-.066406-.222656-.066406-.351562-.023438-.992188-.222657-1.972656-.589844-2.894532l-.042969-.125c-.398437-.890624-.945313-1.703124-1.621094-2.40625-.203125-.214843-.425781-.378906-.640625-.574218-.539062-.476563-1.136718-.878906-1.78125-1.203125-.273437-.136719-.53125-.273438-.855468-.382813-.933594-.371094-1.929688-.574218-2.933594-.597656h-42.667969c-4.710937 0-8.53125 3.820312-8.53125 8.535156 0 4.710938 3.820313 8.53125 8.53125 8.53125h22.46875l-91.066406 93.644532-39.519531-38.117188c-6.527344-5.789062-16.363282-5.738281-22.835938.109375l-56.777344 52.78125v-202.285156c0-4.710938-3.824218-8.53125-8.535156-8.53125s-8.535156 3.820312-8.535156 8.53125v264.535156c0 9.425781 7.644531 17.066406 17.070312 17.066406zm0 0" data-original="#000000" class="active-path" data-old_color="#000000" fill="#FFFFFF"/></g> </svg>
