<?xml version="1.0"?>
<svg xmlns="http://www.w3.org/2000/svg" height="512px" viewBox="0 0 504.85142 504" width="512px"><g><path d="m76.40625 472.078125c42.636719 42.546875 111.667969 42.546875 154.304688 0l4.355468-4.359375c97.136719 14.566406 193.082032-32.832031 240.539063-118.828125s36.410156-192.441406-27.699219-266.855469c-64.109375-74.417968-167.746094-101.097656-259.820312-66.890625-92.074219 34.207031-153.148438 122.082031-153.117188 220.304688 0 5.933593.300781 11.851562.746094 17.742187.125 1.679688.300781 3.359375.460937 5.039063.4375 4.476562.996094 8.914062 1.679688 13.308593.167969 1.074219.226562 2.175782.410156 3.25 0 .144532.117187.25.152344.394532.730469 4.265625 1.601562 8.492187 2.566406 12.699218-8.390625 9.097657-14.511719 15.21875-14.679687 15.394532-39.390626 39.382812-34.523438 84.183594 14.472656 133.179687zm193.578125-454.859375c120.523437 0 218.230469 97.707031 218.230469 218.230469 0 120.523437-97.707032 218.230469-218.230469 218.230469-6.648437 0-13.296875-.363282-19.910156-.964844l52.417969-52.417969c29.664062-4.78125 57.019531-18.933594 78.058593-40.382813 14.945313-15.371093 23.433594-35.878906 23.726563-57.316406 0-44.425781-38.976563-83.609375-95.128906-96.273437-3.949219-4.34375-8.90625-7.640625-14.4375-9.601563-9.425782-3.246094-19.824219-1.953125-28.167969 3.5-1.378907-6.136718-4.472657-11.757812-8.914063-16.207031-13.28125-12.695313-34.195312-12.695313-47.472656 0l-59.671875 59.667969c-.226563-17.601563-12.429687-32.773438-29.570313-36.773438-11.734374-2.738281-23.765624 3.210938-28.71875 14.195313-10.328124 18.507812-22.828124 35.722656-37.226562 51.273437-.191406-1.113281-.351562-2.25-.527344-3.355468-.640625-4.097657-1.160156-8.222657-1.5625-12.382813-.152344-1.558594-.320312-3.121094-.4375-4.691406-.410156-5.503907-.6875-11.003907-.6875-16.5.132813-120.46875 97.761719-218.09375 218.230469-218.230469zm53.171875 291.195312 2.125-2.117187 5.757812-5.75c9.226563-8.898437 12.492188-22.316406 8.390626-34.460937-3.816407-11.3125-13.242188-19.816407-24.886719-22.453126l-.308594-.066406c2.65625-5.472656 3.765625-11.570312 3.207031-17.628906 41.90625 13.238281 70.050782 43.285156 70.050782 76.660156-.160157 13.75-4.691407 27.089844-12.933594 38.097656-8.707032-11.46875-21.429688-19.214843-35.613282-21.691406-.421874-.46875-.738281-.996094-1.191406-1.449218-4.1875-4.15625-9.402344-7.117188-15.109375-8.585938zm14.597656 56.613282c6.320313-6.277344 9.863282-14.828125 9.835938-23.738282 0-.660156-.152344-1.292968-.195313-1.953124 6.136719 3.636718 11.519531 8.417968 15.855469 14.082031-10.636719 9.738281-23.007812 17.402343-36.46875 22.585937zm-299.570312-49.839844c2.179687-2.183594 53.5-53.71875 69.203125-86.890625 1.605469-3.765625 5.652343-5.875 9.660156-5.035156 3.289063.789062 19.515625 5.875 16.332031 28.058593-.984375 5.363282-2.917968 10.507813-5.714844 15.191407l-39.816406 39.792969c-3.183594 3.296874-3.136718 8.53125.101563 11.769531 3.238281 3.234375 8.472656 3.28125 11.765625.101562l122.292968-122.292969c6.640626-6.34375 17.09375-6.34375 23.734376 0 6.554687 6.554688 6.554687 17.179688 0 23.734376l-109.988282 110.023437c-2.179687 2.105469-3.054687 5.226563-2.289062 8.164063.769531 2.933593 3.0625 5.222656 5.996094 5.992187 2.933593.769531 6.054687-.105469 8.164062-2.289063l110.003906-110.019531c1.484375-1.488281 2.824219-3.113281 4.003906-4.851562.957032-.394531 1.828126-.964844 2.574219-1.679688l7.910157-7.898437c4.265624-4.640625 10.828124-6.402344 16.84375-4.523438 3.386718 1.152344 6.363281 3.273438 8.554687 6.101563.136719.238281.289063.46875.453125.6875 1.1875 1.753906 2.042969 3.710937 2.515625 5.777343 1.269531 5.609376-.421875 11.476563-4.480469 15.550782l-6.3125 6.3125h-.050781l-5.515625 5.523437-106.832031 106.832031c-2.179688 2.105469-3.054688 5.226563-2.285157 8.160157.765626 2.9375 3.058594 5.226562 5.992188 5.996093 2.933594.769532 6.054688-.105468 8.164062-2.289062l106.839844-106.824219c3.90625-3.910156 9.546875-5.542969 14.941406-4.328125 6.007813 1.4375 10.839844 5.890625 12.757813 11.765625 1.867187 6.015625.109375 12.570313-4.515625 16.847657l-5.382812 5.378906-106.832032 106.832031c-2.179687 2.105469-3.054687 5.226563-2.289062 8.160156.769531 2.9375 3.0625 5.226563 5.996094 5.996094 2.933593.769531 6.054687-.105469 8.164062-2.289063l83.304688-83.269531c6.640624-6.34375 17.09375-6.34375 23.734374 0 6.554688 6.554688 6.554688 17.179688 0 23.734375l-107.039062 107.015625c-36.082031 36-94.492188 36-130.570312 0l-35.621094-35.613281c-54.917969-54.917969-36.578125-87.332031-14.46875-109.40625zm0 0" data-original="#000000" class="active-path" data-old_color="#000000" fill="#FFA500"/><path d="m160.867188 134.726562c2.226562 0 4.363281-.882812 5.9375-2.457031 16.460937-13.964843 38.554687-19.339843 59.589843-14.496093 3.148438.65625 6.386719-.566407 8.320313-3.132813 1.945312-2.546875 2.269531-5.976563.839844-8.84375-13.410157-24.050781-41.222657-36.183594-67.972657-29.65625-4.402343 1.039063-7.1875 5.378906-6.300781 9.816406.886719 4.433594 5.128906 7.371094 9.59375 6.636719 12.765625-3.128906 26.261719-.621094 37.054688 6.882812-19.601563.453126-38.398438 7.871094-53.027344 20.921876-2.40625 2.40625-3.121094 6.023437-1.8125 9.164062 1.304687 3.136719 4.378906 5.179688 7.777344 5.164062zm0 0" data-original="#000000" class="active-path" data-old_color="#000000" fill="#FFA500"/><path d="m313.628906 117.773438c21.042969-4.898438 43.160156.488281 59.59375 14.511718 3.296875 3.175782 8.535156 3.125 11.765625-.117187 3.234375-3.242188 3.273438-8.480469.085938-11.769531-14.636719-13.0625-33.457031-20.484376-53.070313-20.921876 10.792969-7.5 24.289063-10.003906 37.054688-6.882812 2.96875.660156 6.058594-.332031 8.082031-2.597656 2.027344-2.265625 2.671875-5.449219 1.683594-8.324219-.988281-2.871094-3.449219-4.988281-6.441407-5.53125-26.753906-6.558594-54.589843 5.585937-67.984374 29.65625-1.433594 2.867187-1.109376 6.296875.835937 8.84375 1.949219 2.59375 5.226563 3.816406 8.394531 3.132813zm0 0" data-original="#000000" class="active-path" data-old_color="#000000" fill="#FFA500"/></g> </svg>
